<?xml version="1.0" standalone="no"?>
<!DOCTYPE svg PUBLIC "-//W3C//DTD SVG 20010904//EN"
 "http://www.w3.org/TR/2001/REC-SVG-20010904/DTD/svg10.dtd">
<svg version="1.0" xmlns="http://www.w3.org/2000/svg"
 width="90.000000pt" height="90.000000pt" viewBox="0 0 90.000000 90.000000"
 preserveAspectRatio="xMidYMid meet">

<g transform="translate(0.000000,90.000000) scale(0.100000,-0.100000)"
fill="#000000" stroke="none">
<path d="M104 548 c-47 -48 -71 -82 -72 -98 -1 -18 17 -44 71 -97 l71 -73 89
0 89 0 114 112 114 111 0 59 c0 50 -2 58 -19 58 -11 0 -79 -57 -156 -130
l-138 -129 -26 18 c-14 11 -46 41 -71 67 -25 27 -36 41 -24 31 16 -13 23 -14
32 -5 13 13 17 148 4 148 -4 0 -39 -33 -78 -72z"/>
<path d="M667 583 l-37 -37 47 -48 47 -48 -42 -43 c-36 -37 -42 -49 -42 -85 0
-42 0 -42 38 -42 34 0 46 8 125 88 l87 87 -89 83 c-49 45 -91 82 -93 82 -2 0
-20 -17 -41 -37z"/>
</g>
</svg>
